<svg xmlns="http://www.w3.org/2000/svg" viewBox="0 0 800 450" width="800" height="450">
  <defs>
    <linearGradient id="bg" x1="0%" y1="0%" x2="100%" y2="100%">
      <stop offset="0%" stop-color="#0a0f1e"/>
      <stop offset="100%" stop-color="#0d1630"/>
    </linearGradient>
    <linearGradient id="panelGrad" x1="0%" y1="0%" x2="0%" y2="100%">
      <stop offset="0%" stop-color="#111827"/>
      <stop offset="100%" stop-color="#0f172a"/>
    </linearGradient>
    <linearGradient id="scoreGrad" x1="0%" y1="0%" x2="100%" y2="100%">
      <stop offset="0%" stop-color="#22d3ee"/>
      <stop offset="100%" stop-color="#0891b2"/>
    </linearGradient>
    <linearGradient id="accentBar" x1="0%" y1="0%" x2="100%" y2="0%">
      <stop offset="0%" stop-color="#22d3ee"/>
      <stop offset="100%" stop-color="#6366f1"/>
    </linearGradient>
    <filter id="glow">
      <feGaussianBlur stdDeviation="3" result="coloredBlur"/>
      <feMerge><feMergeNode in="coloredBlur"/><feMergeNode in="SourceGraphic"/></feMerge>
    </filter>
  </defs>

  <!-- Background -->
  <rect width="800" height="450" fill="url(#bg)"/>
  
  <!-- Subtle grid -->
  <g opacity="0.04">
    <line x1="0" y1="90" x2="800" y2="90" stroke="#94a3b8" stroke-width="1"/>
    <line x1="0" y1="180" x2="800" y2="180" stroke="#94a3b8" stroke-width="1"/>
    <line x1="0" y1="270" x2="800" y2="270" stroke="#94a3b8" stroke-width="1"/>
    <line x1="0" y1="360" x2="800" y2="360" stroke="#94a3b8" stroke-width="1"/>
    <line x1="133" y1="0" x2="133" y2="450" stroke="#94a3b8" stroke-width="1"/>
    <line x1="266" y1="0" x2="266" y2="450" stroke="#94a3b8" stroke-width="1"/>
    <line x1="400" y1="0" x2="400" y2="450" stroke="#94a3b8" stroke-width="1"/>
    <line x1="533" y1="0" x2="533" y2="450" stroke="#94a3b8" stroke-width="1"/>
    <line x1="666" y1="0" x2="666" y2="450" stroke="#94a3b8" stroke-width="1"/>
  </g>

  <!-- Top accent bar -->
  <rect x="0" y="0" width="800" height="3" fill="url(#accentBar)"/>

  <!-- Header area -->
  <rect x="30" y="20" width="740" height="60" rx="8" fill="#111827" opacity="0.8"/>
  <text x="50" y="45" font-family="system-ui, sans-serif" font-size="11" fill="#6b7280" letter-spacing="2">ALLKA PLATAFORMA</text>
  <text x="50" y="65" font-family="system-ui, sans-serif" font-size="17" font-weight="700" fill="#f1f5f9">Análise de Usabilidade UX</text>
  <text x="570" y="45" font-family="system-ui, sans-serif" font-size="10" fill="#6b7280">RELATÓRIO</text>
  <text x="570" y="65" font-family="system-ui, sans-serif" font-size="13" font-weight="600" fill="#22d3ee">PA0005-REL-UX</text>
  <rect x="720" y="33" width="40" height="14" rx="7" fill="#22d3ee" opacity="0.15"/>
  <text x="740" y="44" font-family="system-ui, sans-serif" font-size="9" fill="#22d3ee" text-anchor="middle">UX</text>

  <!-- LEFT PANEL — Score dashboard -->
  <rect x="30" y="95" width="235" height="320" rx="10" fill="url(#panelGrad)" stroke="#1e293b" stroke-width="1"/>
  <text x="147" y="118" font-family="system-ui, sans-serif" font-size="11" fill="#6b7280" text-anchor="middle" letter-spacing="1">PERFORMANCE</text>
  
  <!-- Score circle -->
  <circle cx="147" cy="185" r="58" fill="none" stroke="#1e293b" stroke-width="10"/>
  <circle cx="147" cy="185" r="58" fill="none" stroke="url(#scoreGrad)" stroke-width="10" stroke-dasharray="255 108" stroke-linecap="round" transform="rotate(-90 147 185)" filter="url(#glow)"/>
  <text x="147" y="178" font-family="system-ui, sans-serif" font-size="30" font-weight="800" fill="#f1f5f9" text-anchor="middle">73</text>
  <text x="147" y="196" font-family="system-ui, sans-serif" font-size="11" fill="#6b7280" text-anchor="middle">/ 100</text>
  <text x="147" y="215" font-family="system-ui, sans-serif" font-size="10" fill="#f59e0b" text-anchor="middle">● Melhorias necessárias</text>

  <!-- Metrics -->
  <text x="50" y="265" font-family="system-ui, sans-serif" font-size="10" fill="#6b7280">LCP</text>
  <text x="230" y="265" font-family="system-ui, sans-serif" font-size="10" fill="#f59e0b" text-anchor="end">3.1s</text>
  <rect x="50" y="270" width="180" height="5" rx="2.5" fill="#1e293b"/>
  <rect x="50" y="270" width="110" height="5" rx="2.5" fill="#f59e0b"/>

  <text x="50" y="290" font-family="system-ui, sans-serif" font-size="10" fill="#6b7280">FID</text>
  <text x="230" y="290" font-family="system-ui, sans-serif" font-size="10" fill="#22c55e" text-anchor="end">62ms</text>
  <rect x="50" y="295" width="180" height="5" rx="2.5" fill="#1e293b"/>
  <rect x="50" y="295" width="40" height="5" rx="2.5" fill="#22c55e"/>

  <text x="50" y="315" font-family="system-ui, sans-serif" font-size="10" fill="#6b7280">CLS</text>
  <text x="230" y="315" font-family="system-ui, sans-serif" font-size="10" fill="#f59e0b" text-anchor="end">0.18</text>
  <rect x="50" y="320" width="180" height="5" rx="2.5" fill="#1e293b"/>
  <rect x="50" y="320" width="120" height="5" rx="2.5" fill="#f59e0b"/>

  <text x="50" y="340" font-family="system-ui, sans-serif" font-size="10" fill="#6b7280">TTFB</text>
  <text x="230" y="340" font-family="system-ui, sans-serif" font-size="10" fill="#22c55e" text-anchor="end">0.7s</text>
  <rect x="50" y="345" width="180" height="5" rx="2.5" fill="#1e293b"/>
  <rect x="50" y="345" width="50" height="5" rx="2.5" fill="#22c55e"/>

  <!-- Desktop/Mobile -->
  <rect x="50" y="365" width="80" height="28" rx="6" fill="#0f172a" stroke="#22d3ee" stroke-width="1"/>
  <text x="90" y="383" font-family="system-ui, sans-serif" font-size="10" fill="#22d3ee" text-anchor="middle">Desktop 81</text>
  <rect x="140" y="365" width="80" height="28" rx="6" fill="#0f172a" stroke="#f59e0b" stroke-width="1"/>
  <text x="180" y="383" font-family="system-ui, sans-serif" font-size="10" fill="#f59e0b" text-anchor="middle">Mobile 64</text>

  <!-- CENTER PANEL — Pages analyzed -->
  <rect x="280" y="95" width="250" height="320" rx="10" fill="url(#panelGrad)" stroke="#1e293b" stroke-width="1"/>
  <text x="296" y="118" font-family="system-ui, sans-serif" font-size="11" fill="#6b7280" letter-spacing="1">PÁGINAS ANALISADAS</text>

  <!-- Page rows -->
  <g>
    <rect x="296" y="127" width="218" height="44" rx="6" fill="#0f172a"/>
    <text x="312" y="144" font-family="system-ui, sans-serif" font-size="10" font-weight="600" fill="#f1f5f9">Homepage</text>
    <text x="312" y="158" font-family="system-ui, sans-serif" font-size="9" fill="#6b7280">/  —  3 problemas</text>
    <circle cx="490" cy="149" r="8" fill="#ef4444" opacity="0.2"/>
    <text x="490" y="153" font-family="system-ui, sans-serif" font-size="9" fill="#ef4444" text-anchor="middle">3</text>
  </g>
  <g>
    <rect x="296" y="178" width="218" height="44" rx="6" fill="#0f172a"/>
    <text x="312" y="195" font-family="system-ui, sans-serif" font-size="10" font-weight="600" fill="#f1f5f9">Serviços</text>
    <text x="312" y="209" font-family="system-ui, sans-serif" font-size="9" fill="#6b7280">/servicos  —  1 problema</text>
    <circle cx="490" cy="200" r="8" fill="#f59e0b" opacity="0.2"/>
    <text x="490" y="204" font-family="system-ui, sans-serif" font-size="9" fill="#f59e0b" text-anchor="middle">1</text>
  </g>
  <g>
    <rect x="296" y="229" width="218" height="44" rx="6" fill="#0f172a"/>
    <text x="312" y="246" font-family="system-ui, sans-serif" font-size="10" font-weight="600" fill="#f1f5f9">Contato</text>
    <text x="312" y="260" font-family="system-ui, sans-serif" font-size="9" fill="#6b7280">/contato  —  2 problemas</text>
    <circle cx="490" cy="251" r="8" fill="#ef4444" opacity="0.2"/>
    <text x="490" y="255" font-family="system-ui, sans-serif" font-size="9" fill="#ef4444" text-anchor="middle">2</text>
  </g>
  <g>
    <rect x="296" y="280" width="218" height="44" rx="6" fill="#0f172a"/>
    <text x="312" y="297" font-family="system-ui, sans-serif" font-size="10" font-weight="600" fill="#f1f5f9">Blog</text>
    <text x="312" y="311" font-family="system-ui, sans-serif" font-size="9" fill="#6b7280">/blog  —  nenhum</text>
    <circle cx="490" cy="302" r="8" fill="#22c55e" opacity="0.2"/>
    <text x="490" y="306" font-family="system-ui, sans-serif" font-size="9" fill="#22c55e" text-anchor="middle">✓</text>
  </g>
  <g>
    <rect x="296" y="331" width="218" height="44" rx="6" fill="#0f172a"/>
    <text x="312" y="348" font-family="system-ui, sans-serif" font-size="10" font-weight="600" fill="#f1f5f9">Sobre Nós</text>
    <text x="312" y="362" font-family="system-ui, sans-serif" font-size="9" fill="#6b7280">/sobre  —  1 problema</text>
    <circle cx="490" cy="353" r="8" fill="#f59e0b" opacity="0.2"/>
    <text x="490" y="357" font-family="system-ui, sans-serif" font-size="9" fill="#f59e0b" text-anchor="middle">1</text>
  </g>

  <!-- RIGHT PANEL — Summary -->
  <rect x="545" y="95" width="225" height="320" rx="10" fill="url(#panelGrad)" stroke="#1e293b" stroke-width="1"/>
  <text x="561" y="118" font-family="system-ui, sans-serif" font-size="11" fill="#6b7280" letter-spacing="1">RESUMO DO DIAGNÓSTICO</text>

  <!-- Summary cards -->
  <rect x="561" y="127" width="93" height="70" rx="8" fill="#0f172a"/>
  <text x="607" y="153" font-family="system-ui, sans-serif" font-size="28" font-weight="800" fill="#ef4444" text-anchor="middle">5</text>
  <text x="607" y="170" font-family="system-ui, sans-serif" font-size="9" fill="#6b7280" text-anchor="middle">Problemas</text>
  <text x="607" y="183" font-family="system-ui, sans-serif" font-size="9" fill="#6b7280" text-anchor="middle">Críticos</text>

  <rect x="661" y="127" width="93" height="70" rx="8" fill="#0f172a"/>
  <text x="707" y="153" font-family="system-ui, sans-serif" font-size="28" font-weight="800" fill="#f59e0b" text-anchor="middle">7</text>
  <text x="707" y="170" font-family="system-ui, sans-serif" font-size="9" fill="#6b7280" text-anchor="middle">Melhorias</text>
  <text x="707" y="183" font-family="system-ui, sans-serif" font-size="9" fill="#6b7280" text-anchor="middle">Sugeridas</text>

  <!-- Issues list -->
  <text x="561" y="218" font-family="system-ui, sans-serif" font-size="10" font-weight="600" fill="#f1f5f9">Principais Achados:</text>
  
  <rect x="561" y="226" width="8" height="8" rx="2" fill="#ef4444"/>
  <text x="576" y="234" font-family="system-ui, sans-serif" font-size="9.5" fill="#cbd5e1">Botão de contato quebrado (mobile)</text>

  <rect x="561" y="244" width="8" height="8" rx="2" fill="#ef4444"/>
  <text x="576" y="252" font-family="system-ui, sans-serif" font-size="9.5" fill="#cbd5e1">LCP acima de 2.5s na homepage</text>

  <rect x="561" y="262" width="8" height="8" rx="2" fill="#ef4444"/>
  <text x="576" y="270" font-family="system-ui, sans-serif" font-size="9.5" fill="#cbd5e1">Formulário sem validação</text>

  <rect x="561" y="280" width="8" height="8" rx="2" fill="#f59e0b"/>
  <text x="576" y="288" font-family="system-ui, sans-serif" font-size="9.5" fill="#cbd5e1">Meta Pixel não instalado</text>

  <rect x="561" y="298" width="8" height="8" rx="2" fill="#f59e0b"/>
  <text x="576" y="306" font-family="system-ui, sans-serif" font-size="9.5" fill="#cbd5e1">Imagens sem compressão (4.2MB)</text>

  <rect x="561" y="316" width="8" height="8" rx="2" fill="#22c55e"/>
  <text x="576" y="324" font-family="system-ui, sans-serif" font-size="9.5" fill="#cbd5e1">GA4 ativo e disparando ✓</text>

  <!-- Tagueamento status -->
  <rect x="561" y="338" width="209" height="38" rx="6" fill="#0f172a"/>
  <text x="571" y="352" font-family="system-ui, sans-serif" font-size="9" fill="#6b7280">Tagueamento</text>
  <rect x="571" y="358" width="45" height="10" rx="3" fill="#22c55e" opacity="0.2"/>
  <text x="593" y="367" font-family="system-ui, sans-serif" font-size="8" fill="#22c55e" text-anchor="middle">GA4 ✓</text>
  <rect x="621" y="358" width="45" height="10" rx="3" fill="#ef4444" opacity="0.2"/>
  <text x="643" y="367" font-family="system-ui, sans-serif" font-size="8" fill="#ef4444" text-anchor="middle">Meta ✗</text>
  <rect x="671" y="358" width="45" height="10" rx="3" fill="#ef4444" opacity="0.2"/>
  <text x="693" y="367" font-family="system-ui, sans-serif" font-size="8" fill="#ef4444" text-anchor="middle">TikTok ✗</text>

  <!-- Bottom bar -->
  <rect x="30" y="427" width="740" height="1" fill="#1e293b"/>
  <text x="50" y="443" font-family="system-ui, sans-serif" font-size="9" fill="#374151">PA0005 — Análise de Usabilidade UX</text>
  <text x="400" y="443" font-family="system-ui, sans-serif" font-size="9" fill="#374151" text-anchor="middle">4 a 6 dias úteis | até 5, 10, 20 ou 50 páginas</text>
  <text x="750" y="443" font-family="system-ui, sans-serif" font-size="9" fill="#374151" text-anchor="end">allka.com.br</text>
</svg>
