<svg xmlns="http://www.w3.org/2000/svg" width="1200" height="750" viewBox="0 0 1200 750" role="img" aria-label="Automação de E-mail (até 20 copys)"><defs><linearGradient id="g9edip0" x1="0" y1="0" x2="1" y2="1" gradientTransform="rotate(51 0.5 0.5)"><stop offset="0%" stop-color="#9a3412"/><stop offset="100%" stop-color="#d97706"/></linearGradient><linearGradient id="g9edip0v" x1="0" y1="0" x2="0" y2="1"><stop offset="55%" stop-color="#000" stop-opacity="0"/><stop offset="100%" stop-color="#000" stop-opacity="0.55"/></linearGradient></defs><rect width="1200" height="750" fill="url(#g9edip0)"/><circle cx="1099.9204812012613" cy="110.83602365106344" r="186.31222105119377" fill="#fff" opacity="0.07"/><circle cx="70.13040135148913" cy="671.9214309472591" r="219.28364342078567" fill="#000" opacity="0.08"/><g opacity="0.98"><rect x="205" y="175" width="230" height="210" rx="14" fill="#fffbeb" opacity="0.95"/><circle cx="320" cy="263" r="49.52675717463717" fill="#d97706" opacity="0.55"/><rect x="239" y="331" width="139.03323367703706" height="11" rx="6" fill="#9a3412" opacity="0.3"/><rect x="239" y="351" width="92.55468142684549" height="11" rx="6" fill="#9a3412" opacity="0.18"/><rect x="475" y="175" width="230" height="210" rx="14" fill="#fffbeb" opacity="0.95"/><circle cx="590" cy="263" r="45.253693505655974" fill="#d97706" opacity="0.55"/><rect x="509" y="331" width="129.7629251005128" height="11" rx="6" fill="#9a3412" opacity="0.3"/><rect x="509" y="351" width="111.19876853656024" height="11" rx="6" fill="#9a3412" opacity="0.18"/><rect x="745" y="175" width="230" height="210" rx="14" fill="#fffbeb" opacity="0.95"/><circle cx="860" cy="263" r="45.820419372525066" fill="#d97706" opacity="0.55"/><rect x="779" y="331" width="111.4969128696248" height="11" rx="6" fill="#9a3412" opacity="0.3"/><rect x="779" y="351" width="72.37176387105137" height="11" rx="6" fill="#9a3412" opacity="0.18"/><rect x="205" y="425" width="230" height="210" rx="14" fill="#fffbeb" opacity="0.95"/><circle cx="320" cy="513" r="57.67850380111486" fill="#d97706" opacity="0.55"/><rect x="239" y="581" width="148.09647190384567" height="11" rx="6" fill="#9a3412" opacity="0.3"/><rect x="239" y="601" width="106.54377818107605" height="11" rx="6" fill="#9a3412" opacity="0.18"/><rect x="475" y="425" width="230" height="210" rx="14" fill="#fffbeb" opacity="0.95"/><rect x="509" y="465" width="162" height="96" rx="10" fill="#9a3412" opacity="0.45"/><rect x="509" y="581" width="125.69246471393853" height="11" rx="6" fill="#9a3412" opacity="0.3"/><rect x="509" y="601" width="128.15837630536407" height="11" rx="6" fill="#9a3412" opacity="0.18"/><rect x="745" y="425" width="230" height="210" rx="14" fill="#fffbeb" opacity="0.95"/><circle cx="860" cy="513" r="55.39828591933474" fill="#d97706" opacity="0.55"/><rect x="779" y="581" width="150.09408112615347" height="11" rx="6" fill="#9a3412" opacity="0.3"/><rect x="779" y="601" width="100.13288836926222" height="11" rx="6" fill="#9a3412" opacity="0.18"/></g><rect width="1200" height="750" fill="url(#g9edip0v)"/><text x="72" y="652" font-family="Inter, 'Segoe UI', system-ui, -apple-system, sans-serif" font-size="22" font-weight="600" letter-spacing="3" fill="#fcd34d" opacity="0.95">GRADE DE PEÇAS</text><text x="72" y="686" font-family="Inter, 'Segoe UI', system-ui, -apple-system, sans-serif" font-size="40" font-weight="700" fill="#fff">Automação de E-mail (até 20 copys)</text><text x="72" y="730" font-family="Inter, 'Segoe UI', system-ui, -apple-system, sans-serif" font-size="21" font-weight="400" fill="#fff" opacity="0.72">ALK-ADS-002 · peça 2 de 3</text></svg>