<svg xmlns="http://www.w3.org/2000/svg" width="1200" height="750" viewBox="0 0 1200 750" role="img" aria-label="Vetorização da Logomarca"><defs><linearGradient id="gbmpba6" x1="0" y1="0" x2="1" y2="1" gradientTransform="rotate(36 0.5 0.5)"><stop offset="0%" stop-color="#4c1d95"/><stop offset="100%" stop-color="#a21caf"/></linearGradient><linearGradient id="gbmpba6v" x1="0" y1="0" x2="0" y2="1"><stop offset="55%" stop-color="#000" stop-opacity="0"/><stop offset="100%" stop-color="#000" stop-opacity="0.55"/></linearGradient></defs><rect width="1200" height="750" fill="url(#gbmpba6)"/><circle cx="1111.0320780426264" cy="135.2729748841375" r="187.4865707801655" fill="#fff" opacity="0.07"/><circle cx="64.65807447675616" cy="699.232832416892" r="224.97412273660302" fill="#000" opacity="0.08"/><g opacity="0.98"><rect x="205" y="175" width="230" height="210" rx="14" fill="#faf5ff" opacity="0.95"/><rect x="239" y="215" width="162" height="96" rx="10" fill="#4c1d95" opacity="0.45"/><rect x="239" y="331" width="113.17157539539039" height="11" rx="6" fill="#4c1d95" opacity="0.3"/><rect x="239" y="351" width="70.8217818196863" height="11" rx="6" fill="#4c1d95" opacity="0.18"/><rect x="475" y="175" width="230" height="210" rx="14" fill="#faf5ff" opacity="0.95"/><circle cx="590" cy="263" r="46.01138778263703" fill="#a21caf" opacity="0.55"/><rect x="509" y="331" width="122.62845720164478" height="11" rx="6" fill="#4c1d95" opacity="0.3"/><rect x="509" y="351" width="87.58016979321837" height="11" rx="6" fill="#4c1d95" opacity="0.18"/><rect x="745" y="175" width="230" height="210" rx="14" fill="#faf5ff" opacity="0.95"/><rect x="779" y="215" width="162" height="96" rx="10" fill="#4c1d95" opacity="0.45"/><rect x="779" y="331" width="139.04830063693225" height="11" rx="6" fill="#4c1d95" opacity="0.3"/><rect x="779" y="351" width="116.52798086870462" height="11" rx="6" fill="#4c1d95" opacity="0.18"/><rect x="205" y="425" width="230" height="210" rx="14" fill="#faf5ff" opacity="0.95"/><rect x="239" y="465" width="162" height="96" rx="10" fill="#4c1d95" opacity="0.45"/><rect x="239" y="581" width="136.7082513589412" height="11" rx="6" fill="#4c1d95" opacity="0.3"/><rect x="239" y="601" width="116.07093366794288" height="11" rx="6" fill="#4c1d95" opacity="0.18"/><rect x="475" y="425" width="230" height="210" rx="14" fill="#faf5ff" opacity="0.95"/><circle cx="590" cy="513" r="47.699644092004746" fill="#a21caf" opacity="0.55"/><rect x="509" y="581" width="137.4857057351619" height="11" rx="6" fill="#4c1d95" opacity="0.3"/><rect x="509" y="601" width="122.81870339997113" height="11" rx="6" fill="#4c1d95" opacity="0.18"/><rect x="745" y="425" width="230" height="210" rx="14" fill="#faf5ff" opacity="0.95"/><circle cx="860" cy="513" r="51.974448807071894" fill="#a21caf" opacity="0.55"/><rect x="779" y="581" width="113.43398320954293" height="11" rx="6" fill="#4c1d95" opacity="0.3"/><rect x="779" y="601" width="103.674705629237" height="11" rx="6" fill="#4c1d95" opacity="0.18"/></g><rect width="1200" height="750" fill="url(#gbmpba6v)"/><text x="72" y="652" font-family="Inter, 'Segoe UI', system-ui, -apple-system, sans-serif" font-size="22" font-weight="600" letter-spacing="3" fill="#f0abfc" opacity="0.95">GRADE DE PEÇAS</text><text x="72" y="686" font-family="Inter, 'Segoe UI', system-ui, -apple-system, sans-serif" font-size="40" font-weight="700" fill="#fff">Vetorização da Logomarca</text><text x="72" y="730" font-family="Inter, 'Segoe UI', system-ui, -apple-system, sans-serif" font-size="21" font-weight="400" fill="#fff" opacity="0.72">ALK-DES-022 · peça 3 de 3</text></svg>