<svg xmlns="http://www.w3.org/2000/svg" width="1200" height="750" viewBox="0 0 1200 750" role="img" aria-label="E-mail marketing (Copy + Criativo + HTML)"><defs><linearGradient id="g91y4lh" x1="0" y1="0" x2="1" y2="1" gradientTransform="rotate(21 0.5 0.5)"><stop offset="0%" stop-color="#1e3a8a"/><stop offset="100%" stop-color="#4338ca"/></linearGradient><linearGradient id="g91y4lhv" x1="0" y1="0" x2="0" y2="1"><stop offset="55%" stop-color="#000" stop-opacity="0"/><stop offset="100%" stop-color="#000" stop-opacity="0.55"/></linearGradient></defs><rect width="1200" height="750" fill="url(#g91y4lh)"/><circle cx="1090.0249499548227" cy="122.77692444156855" r="221.22347569093108" fill="#fff" opacity="0.07"/><circle cx="92.6393822254613" cy="663.3565426338464" r="259.63333789259195" fill="#000" opacity="0.08"/><g opacity="0.98"><rect x="196" y="196" width="820" height="410" rx="14" fill="#eff6ff" opacity="0.35"/><rect x="174" y="174" width="820" height="410" rx="14" fill="#eff6ff" opacity="0.6"/><rect x="150" y="150" width="820" height="410" rx="14" fill="#eff6ff" opacity="0.97"/><rect x="192" y="196" width="333.55727770365775" height="22" rx="11" fill="#1e3a8a" opacity="0.5"/><rect x="192" y="238" width="398.83412547409534" height="12" rx="6" fill="#1e3a8a" opacity="0.2"/><rect x="192" y="300" width="360" height="216" rx="12" fill="#1e3a8a" opacity="0.12"/><circle cx="372" cy="408" r="72" fill="none" stroke="#4338ca" stroke-width="26" opacity="0.65"/><circle cx="372" cy="408" r="72" fill="none" stroke="#93c5fd" stroke-width="26" stroke-dasharray="248.08635266963392 452" opacity="0.95"/><rect x="590" y="306" width="24" height="24" rx="7" fill="#4338ca" opacity="0.6"/><rect x="630" y="313" width="208.08279268443584" height="11" rx="6" fill="#1e3a8a" opacity="0.25"/><rect x="590" y="360" width="24" height="24" rx="7" fill="#4338ca" opacity="0.6"/><rect x="630" y="367" width="212.3958769417368" height="11" rx="6" fill="#1e3a8a" opacity="0.25"/><rect x="590" y="414" width="24" height="24" rx="7" fill="#4338ca" opacity="0.6"/><rect x="630" y="421" width="180.711949034594" height="11" rx="6" fill="#1e3a8a" opacity="0.25"/><rect x="590" y="468" width="24" height="24" rx="7" fill="#4338ca" opacity="0.6"/><rect x="630" y="475" width="199.21961423940957" height="11" rx="6" fill="#1e3a8a" opacity="0.25"/></g><rect width="1200" height="750" fill="url(#g91y4lhv)"/><text x="72" y="612" font-family="Inter, 'Segoe UI', system-ui, -apple-system, sans-serif" font-size="22" font-weight="600" letter-spacing="3" fill="#93c5fd" opacity="0.95">APRESENTAÇÃO ENTREGUE</text><text x="72" y="646" font-family="Inter, 'Segoe UI', system-ui, -apple-system, sans-serif" font-size="40" font-weight="700" fill="#fff">E-mail marketing (Copy + Criativo</text><text x="72" y="692" font-family="Inter, 'Segoe UI', system-ui, -apple-system, sans-serif" font-size="40" font-weight="700" fill="#fff">+ HTML)</text><text x="72" y="736" font-family="Inter, 'Segoe UI', system-ui, -apple-system, sans-serif" font-size="21" font-weight="400" fill="#fff" opacity="0.72">ALK-WEB-007 · peça 2 de 3</text></svg>