<svg xmlns="http://www.w3.org/2000/svg" width="1200" height="750" viewBox="0 0 1200 750" role="img" aria-label="F2 – Impulsionamento Testado"><defs><linearGradient id="gdobfsg" x1="0" y1="0" x2="1" y2="1" gradientTransform="rotate(29 0.5 0.5)"><stop offset="0%" stop-color="#064e3b"/><stop offset="100%" stop-color="#047857"/></linearGradient><linearGradient id="gdobfsgv" x1="0" y1="0" x2="0" y2="1"><stop offset="55%" stop-color="#000" stop-opacity="0"/><stop offset="100%" stop-color="#000" stop-opacity="0.55"/></linearGradient></defs><rect width="1200" height="750" fill="url(#gdobfsg)"/><circle cx="1104.3248115526512" cy="138.28166087158024" r="217.09104574285448" fill="#fff" opacity="0.07"/><circle cx="71.19193760678172" cy="665.8860871009529" r="226.5077962866053" fill="#000" opacity="0.08"/><g opacity="0.98"><rect x="205" y="175" width="230" height="210" rx="14" fill="#ecfdf5" opacity="0.95"/><path d="M 239 311 L 309 223 L 401 311 Z" fill="#047857" opacity="0.5"/><circle cx="273" cy="237" r="16" fill="#6ee7b7" opacity="0.8"/><rect x="239" y="331" width="166.65065557230264" height="11" rx="6" fill="#064e3b" opacity="0.3"/><rect x="239" y="351" width="123.18808159325272" height="11" rx="6" fill="#064e3b" opacity="0.18"/><rect x="475" y="175" width="230" height="210" rx="14" fill="#ecfdf5" opacity="0.95"/><circle cx="590" cy="263" r="49.18455724325031" fill="#047857" opacity="0.55"/><rect x="509" y="331" width="123.79953029099852" height="11" rx="6" fill="#064e3b" opacity="0.3"/><rect x="509" y="351" width="124.23759134020656" height="11" rx="6" fill="#064e3b" opacity="0.18"/><rect x="745" y="175" width="230" height="210" rx="14" fill="#ecfdf5" opacity="0.95"/><path d="M 779 311 L 849 223 L 941 311 Z" fill="#047857" opacity="0.5"/><circle cx="813" cy="237" r="16" fill="#6ee7b7" opacity="0.8"/><rect x="779" y="331" width="117.46041102800518" height="11" rx="6" fill="#064e3b" opacity="0.3"/><rect x="779" y="351" width="117.26809819694608" height="11" rx="6" fill="#064e3b" opacity="0.18"/><rect x="205" y="425" width="230" height="210" rx="14" fill="#ecfdf5" opacity="0.95"/><rect x="239" y="465" width="162" height="96" rx="10" fill="#064e3b" opacity="0.45"/><rect x="239" y="581" width="165.08812497369945" height="11" rx="6" fill="#064e3b" opacity="0.3"/><rect x="239" y="601" width="74.10766653716564" height="11" rx="6" fill="#064e3b" opacity="0.18"/><rect x="475" y="425" width="230" height="210" rx="14" fill="#ecfdf5" opacity="0.95"/><circle cx="590" cy="513" r="50.22939826361835" fill="#047857" opacity="0.55"/><rect x="509" y="581" width="140.0297771161422" height="11" rx="6" fill="#064e3b" opacity="0.3"/><rect x="509" y="601" width="118.17062513902783" height="11" rx="6" fill="#064e3b" opacity="0.18"/><rect x="745" y="425" width="230" height="210" rx="14" fill="#ecfdf5" opacity="0.95"/><path d="M 779 561 L 849 473 L 941 561 Z" fill="#047857" opacity="0.5"/><circle cx="813" cy="487" r="16" fill="#6ee7b7" opacity="0.8"/><rect x="779" y="581" width="138.75836204271764" height="11" rx="6" fill="#064e3b" opacity="0.3"/><rect x="779" y="601" width="118.58019135892391" height="11" rx="6" fill="#064e3b" opacity="0.18"/></g><rect width="1200" height="750" fill="url(#gdobfsgv)"/><text x="72" y="652" font-family="Inter, 'Segoe UI', system-ui, -apple-system, sans-serif" font-size="22" font-weight="600" letter-spacing="3" fill="#6ee7b7" opacity="0.95">GRADE DE PEÇAS</text><text x="72" y="686" font-family="Inter, 'Segoe UI', system-ui, -apple-system, sans-serif" font-size="40" font-weight="700" fill="#fff">F2 – Impulsionamento Testado</text><text x="72" y="730" font-family="Inter, 'Segoe UI', system-ui, -apple-system, sans-serif" font-size="21" font-weight="400" fill="#fff" opacity="0.72">ALK-PCT-002 · peça 3 de 3</text></svg>