<svg xmlns="http://www.w3.org/2000/svg" width="1200" height="750" viewBox="0 0 1200 750" role="img" aria-label="Vídeo Promocional (roteiro + layout + animação)"><defs><linearGradient id="g572687" x1="0" y1="0" x2="1" y2="1" gradientTransform="rotate(42 0.5 0.5)"><stop offset="0%" stop-color="#881337"/><stop offset="100%" stop-color="#be123c"/></linearGradient><linearGradient id="g572687v" x1="0" y1="0" x2="0" y2="1"><stop offset="55%" stop-color="#000" stop-opacity="0"/><stop offset="100%" stop-color="#000" stop-opacity="0.55"/></linearGradient></defs><rect width="1200" height="750" fill="url(#g572687)"/><circle cx="1138.8011011015624" cy="127.95901153236628" r="190.99271112587303" fill="#fff" opacity="0.07"/><circle cx="93.65350065752864" cy="671.7542468942702" r="243.91675203107297" fill="#000" opacity="0.08"/><g opacity="0.98"><circle cx="346.66884074918926" cy="262.88629891350865" r="133.4907300816849" fill="#fda4af" opacity="0.22"/><circle cx="887.0428533246741" cy="511.07651961036026" r="153.51592958904803" fill="#fff1f2" opacity="0.12"/><rect x="452.5750711373985" y="236.27120518125594" width="325.36168626509607" height="334.7784447390586" rx="24" fill="#fff1f2" opacity="0.1" transform="rotate(-2.8938053883612156 600 375)"/><rect x="150" y="594.8576124384999" width="18" height="128.18399645155296" rx="9" fill="#fda4af" opacity="0.35"/><rect x="192" y="595.2366679813713" width="18" height="91.67584406211972" rx="9" fill="#fda4af" opacity="0.35"/><rect x="234" y="576.3776143454015" width="18" height="105.5621702875942" rx="9" fill="#fda4af" opacity="0.35"/><rect x="276" y="586.1328639090061" width="18" height="99.82474245829508" rx="9" fill="#fda4af" opacity="0.35"/><rect x="318" y="573.3107295446098" width="18" height="73.23763785418123" rx="9" fill="#fda4af" opacity="0.35"/></g><rect width="1200" height="750" fill="url(#g572687v)"/><text x="72" y="612" font-family="Inter, 'Segoe UI', system-ui, -apple-system, sans-serif" font-size="22" font-weight="600" letter-spacing="3" fill="#fda4af" opacity="0.95">CONCEITO VISUAL</text><text x="72" y="646" font-family="Inter, 'Segoe UI', system-ui, -apple-system, sans-serif" font-size="40" font-weight="700" fill="#fff">Vídeo Promocional (roteiro +</text><text x="72" y="692" font-family="Inter, 'Segoe UI', system-ui, -apple-system, sans-serif" font-size="40" font-weight="700" fill="#fff">layout + animação)</text><text x="72" y="736" font-family="Inter, 'Segoe UI', system-ui, -apple-system, sans-serif" font-size="21" font-weight="400" fill="#fff" opacity="0.72">ALK-AV-006 · peça 1 de 3</text></svg>