<svg xmlns="http://www.w3.org/2000/svg" width="1200" height="750" viewBox="0 0 1200 750" role="img" aria-label="Roteirização de Vídeo"><defs><linearGradient id="g45n412" x1="0" y1="0" x2="1" y2="1" gradientTransform="rotate(46 0.5 0.5)"><stop offset="0%" stop-color="#0f766e"/><stop offset="100%" stop-color="#0891b2"/></linearGradient><linearGradient id="g45n412v" x1="0" y1="0" x2="0" y2="1"><stop offset="55%" stop-color="#000" stop-opacity="0"/><stop offset="100%" stop-color="#000" stop-opacity="0.55"/></linearGradient></defs><rect width="1200" height="750" fill="url(#g45n412)"/><circle cx="1121.9293442275375" cy="131.8614810053259" r="199.91920068394393" fill="#fff" opacity="0.07"/><circle cx="110.05924756173044" cy="699.1114139556885" r="200.88164932560176" fill="#000" opacity="0.08"/><g opacity="0.98"><rect x="300" y="170" width="200" height="420" rx="28" fill="#ecfeff" opacity="0.75"/><rect x="372" y="184" width="56" height="8" rx="4" fill="#0f766e" opacity="0.25"/><rect x="316" y="210" width="168" height="118.58681124635041" rx="12" fill="#0891b2" opacity="0.5"/><rect x="316" y="370" width="112.26778243714944" height="12" rx="6" fill="#0f766e" opacity="0.22"/><rect x="316" y="404" width="150.03797647356987" height="12" rx="6" fill="#0f766e" opacity="0.22"/><rect x="316" y="438" width="148.63553031953052" height="12" rx="6" fill="#0f766e" opacity="0.22"/><rect x="316" y="500" width="168" height="36" rx="18" fill="#0891b2" opacity="0.8"/><rect x="520" y="130" width="200" height="420" rx="28" fill="#ecfeff" opacity="0.98"/><rect x="592" y="144" width="56" height="8" rx="4" fill="#0f766e" opacity="0.25"/><rect x="536" y="170" width="168" height="143.3816910162568" rx="12" fill="#0891b2" opacity="0.5"/><rect x="536" y="330" width="154.83496863488108" height="12" rx="6" fill="#0f766e" opacity="0.22"/><rect x="536" y="364" width="133.4472261359915" height="12" rx="6" fill="#0f766e" opacity="0.22"/><rect x="536" y="398" width="156.5253394995816" height="12" rx="6" fill="#0f766e" opacity="0.22"/><rect x="536" y="460" width="168" height="36" rx="18" fill="#0891b2" opacity="0.8"/><rect x="740" y="170" width="200" height="420" rx="28" fill="#ecfeff" opacity="0.75"/><rect x="812" y="184" width="56" height="8" rx="4" fill="#0f766e" opacity="0.25"/><rect x="756" y="210" width="168" height="128.3906287420541" rx="12" fill="#0891b2" opacity="0.5"/><rect x="756" y="370" width="137.8820814844221" height="12" rx="6" fill="#0f766e" opacity="0.22"/><rect x="756" y="404" width="141.56198073364794" height="12" rx="6" fill="#0f766e" opacity="0.22"/><rect x="756" y="438" width="111.2628706023097" height="12" rx="6" fill="#0f766e" opacity="0.22"/><rect x="756" y="500" width="168" height="36" rx="18" fill="#0891b2" opacity="0.8"/></g><rect width="1200" height="750" fill="url(#g45n412v)"/><text x="72" y="652" font-family="Inter, 'Segoe UI', system-ui, -apple-system, sans-serif" font-size="22" font-weight="600" letter-spacing="3" fill="#5eead4" opacity="0.95">VERSÃO MOBILE</text><text x="72" y="686" font-family="Inter, 'Segoe UI', system-ui, -apple-system, sans-serif" font-size="40" font-weight="700" fill="#fff">Roteirização de Vídeo</text><text x="72" y="730" font-family="Inter, 'Segoe UI', system-ui, -apple-system, sans-serif" font-size="21" font-weight="400" fill="#fff" opacity="0.72">ALK-MID-011 · peça 1 de 3</text></svg>