<svg xmlns="http://www.w3.org/2000/svg" width="1200" height="750" viewBox="0 0 1200 750" role="img" aria-label="Assinatura de E-mail (5 unidades) + HTML"><defs><linearGradient id="g109ktl" x1="0" y1="0" x2="1" y2="1" gradientTransform="rotate(43 0.5 0.5)"><stop offset="0%" stop-color="#4c1d95"/><stop offset="100%" stop-color="#a21caf"/></linearGradient><linearGradient id="g109ktlv" x1="0" y1="0" x2="0" y2="1"><stop offset="55%" stop-color="#000" stop-opacity="0"/><stop offset="100%" stop-color="#000" stop-opacity="0.55"/></linearGradient></defs><rect width="1200" height="750" fill="url(#g109ktl)"/><circle cx="1118.4768562065437" cy="107.72288607433438" r="225.1560832746327" fill="#fff" opacity="0.07"/><circle cx="115.54619955830276" cy="676.2520408723503" r="235.23421918973327" fill="#000" opacity="0.08"/><g opacity="0.98"><circle cx="309.2073179874569" cy="309.66316206380725" r="174.39827964641154" fill="#f0abfc" opacity="0.22"/><circle cx="959.9217319115996" cy="496.77079582121223" r="163.41740367468446" fill="#faf5ff" opacity="0.12"/><rect x="427.81461575999856" y="209.97046880889684" width="346.6004274878651" height="354.944429313764" rx="24" fill="#faf5ff" opacity="0.1" transform="rotate(-4.328320529311895 600 375)"/><rect x="150" y="590.2031337004155" width="18" height="82.17318362556398" rx="9" fill="#f0abfc" opacity="0.35"/><rect x="192" y="581.2831533048302" width="18" height="66.88929478172213" rx="9" fill="#f0abfc" opacity="0.35"/><rect x="234" y="579.4187608826905" width="18" height="85.73546087369323" rx="9" fill="#f0abfc" opacity="0.35"/><rect x="276" y="568.5796228796244" width="18" height="40.69073910359293" rx="9" fill="#f0abfc" opacity="0.35"/><rect x="318" y="584.5105864759535" width="18" height="97.31715084519237" rx="9" fill="#f0abfc" opacity="0.35"/></g><rect width="1200" height="750" fill="url(#g109ktlv)"/><text x="72" y="612" font-family="Inter, 'Segoe UI', system-ui, -apple-system, sans-serif" font-size="22" font-weight="600" letter-spacing="3" fill="#f0abfc" opacity="0.95">DESIGN E CRIAÇÃO</text><text x="72" y="646" font-family="Inter, 'Segoe UI', system-ui, -apple-system, sans-serif" font-size="40" font-weight="700" fill="#fff">Assinatura de E-mail (5 unidades)</text><text x="72" y="692" font-family="Inter, 'Segoe UI', system-ui, -apple-system, sans-serif" font-size="40" font-weight="700" fill="#fff">+ HTML</text><text x="72" y="736" font-family="Inter, 'Segoe UI', system-ui, -apple-system, sans-serif" font-size="21" font-weight="400" fill="#fff" opacity="0.72">ALK-DES-003 · Allka</text></svg>