<svg xmlns="http://www.w3.org/2000/svg" width="1200" height="750" viewBox="0 0 1200 750" role="img" aria-label="Máquina de Vendas (venda online)"><defs><linearGradient id="g8xjutx" x1="0" y1="0" x2="1" y2="1" gradientTransform="rotate(41 0.5 0.5)"><stop offset="0%" stop-color="#064e3b"/><stop offset="100%" stop-color="#047857"/></linearGradient><linearGradient id="g8xjutxv" x1="0" y1="0" x2="0" y2="1"><stop offset="55%" stop-color="#000" stop-opacity="0"/><stop offset="100%" stop-color="#000" stop-opacity="0.55"/></linearGradient></defs><rect width="1200" height="750" fill="url(#g8xjutx)"/><circle cx="1126.9125798437744" cy="112.32779205776751" r="223.50378260482103" fill="#fff" opacity="0.07"/><circle cx="113.97412065882236" cy="693.6703223921359" r="208.47990536130965" fill="#000" opacity="0.08"/><g opacity="0.98"><rect x="196" y="196" width="820" height="410" rx="14" fill="#ecfdf5" opacity="0.35"/><rect x="174" y="174" width="820" height="410" rx="14" fill="#ecfdf5" opacity="0.6"/><rect x="150" y="150" width="820" height="410" rx="14" fill="#ecfdf5" opacity="0.97"/><rect x="192" y="196" width="295.2897712495178" height="22" rx="11" fill="#064e3b" opacity="0.5"/><rect x="192" y="238" width="414.9999493546784" height="12" rx="6" fill="#064e3b" opacity="0.2"/><rect x="192" y="300" width="360" height="216" rx="12" fill="#064e3b" opacity="0.12"/><circle cx="372" cy="408" r="72" fill="none" stroke="#047857" stroke-width="26" opacity="0.65"/><circle cx="372" cy="408" r="72" fill="none" stroke="#6ee7b7" stroke-width="26" stroke-dasharray="194.3871908588335 452" opacity="0.95"/><rect x="590" y="306" width="24" height="24" rx="7" fill="#047857" opacity="0.6"/><rect x="630" y="313" width="206.05886138044298" height="11" rx="6" fill="#064e3b" opacity="0.25"/><rect x="590" y="360" width="24" height="24" rx="7" fill="#047857" opacity="0.6"/><rect x="630" y="367" width="192.58186343126" height="11" rx="6" fill="#064e3b" opacity="0.25"/><rect x="590" y="414" width="24" height="24" rx="7" fill="#047857" opacity="0.6"/><rect x="630" y="421" width="216.48060993524268" height="11" rx="6" fill="#064e3b" opacity="0.25"/><rect x="590" y="468" width="24" height="24" rx="7" fill="#047857" opacity="0.6"/><rect x="630" y="475" width="249.79294716380537" height="11" rx="6" fill="#064e3b" opacity="0.25"/></g><rect width="1200" height="750" fill="url(#g8xjutxv)"/><text x="72" y="652" font-family="Inter, 'Segoe UI', system-ui, -apple-system, sans-serif" font-size="22" font-weight="600" letter-spacing="3" fill="#6ee7b7" opacity="0.95">APRESENTAÇÃO ENTREGUE</text><text x="72" y="686" font-family="Inter, 'Segoe UI', system-ui, -apple-system, sans-serif" font-size="40" font-weight="700" fill="#fff">Máquina de Vendas (venda online)</text><text x="72" y="730" font-family="Inter, 'Segoe UI', system-ui, -apple-system, sans-serif" font-size="21" font-weight="400" fill="#fff" opacity="0.72">ALK-PCT-008 · peça 1 de 3</text></svg>