<svg xmlns="http://www.w3.org/2000/svg" width="1200" height="750" viewBox="0 0 1200 750" role="img" aria-label="Layout de Página Web Adicional"><defs><linearGradient id="g5sgyrf" x1="0" y1="0" x2="1" y2="1" gradientTransform="rotate(56 0.5 0.5)"><stop offset="0%" stop-color="#4c1d95"/><stop offset="100%" stop-color="#a21caf"/></linearGradient><linearGradient id="g5sgyrfv" x1="0" y1="0" x2="0" y2="1"><stop offset="55%" stop-color="#000" stop-opacity="0"/><stop offset="100%" stop-color="#000" stop-opacity="0.55"/></linearGradient></defs><rect width="1200" height="750" fill="url(#g5sgyrf)"/><circle cx="1128.9284209767357" cy="104.33053756598383" r="234.95409338269383" fill="#fff" opacity="0.07"/><circle cx="85.05337255541235" cy="676.3714808784425" r="247.00727770570666" fill="#000" opacity="0.08"/><g opacity="0.98"><rect x="205" y="175" width="230" height="210" rx="14" fill="#faf5ff" opacity="0.95"/><circle cx="320" cy="263" r="47.36182405240834" fill="#a21caf" opacity="0.55"/><rect x="239" y="331" width="145.14726232271641" height="11" rx="6" fill="#4c1d95" opacity="0.3"/><rect x="239" y="351" width="84.23675918020308" height="11" rx="6" fill="#4c1d95" opacity="0.18"/><rect x="475" y="175" width="230" height="210" rx="14" fill="#faf5ff" opacity="0.95"/><rect x="509" y="215" width="162" height="96" rx="10" fill="#4c1d95" opacity="0.45"/><rect x="509" y="331" width="149.52048067003489" height="11" rx="6" fill="#4c1d95" opacity="0.3"/><rect x="509" y="351" width="89.6887567685917" height="11" rx="6" fill="#4c1d95" opacity="0.18"/><rect x="745" y="175" width="230" height="210" rx="14" fill="#faf5ff" opacity="0.95"/><path d="M 779 311 L 849 223 L 941 311 Z" fill="#a21caf" opacity="0.5"/><circle cx="813" cy="237" r="16" fill="#f0abfc" opacity="0.8"/><rect x="779" y="331" width="120.76240379363298" height="11" rx="6" fill="#4c1d95" opacity="0.3"/><rect x="779" y="351" width="96.8078729743138" height="11" rx="6" fill="#4c1d95" opacity="0.18"/><rect x="205" y="425" width="230" height="210" rx="14" fill="#faf5ff" opacity="0.95"/><circle cx="320" cy="513" r="55.42096739914268" fill="#a21caf" opacity="0.55"/><rect x="239" y="581" width="130.39124716073275" height="11" rx="6" fill="#4c1d95" opacity="0.3"/><rect x="239" y="601" width="122.3750817310065" height="11" rx="6" fill="#4c1d95" opacity="0.18"/><rect x="475" y="425" width="230" height="210" rx="14" fill="#faf5ff" opacity="0.95"/><circle cx="590" cy="513" r="47.004132809117436" fill="#a21caf" opacity="0.55"/><rect x="509" y="581" width="163.24144148733467" height="11" rx="6" fill="#4c1d95" opacity="0.3"/><rect x="509" y="601" width="107.0733270002529" height="11" rx="6" fill="#4c1d95" opacity="0.18"/><rect x="745" y="425" width="230" height="210" rx="14" fill="#faf5ff" opacity="0.95"/><rect x="779" y="465" width="162" height="96" rx="10" fill="#4c1d95" opacity="0.45"/><rect x="779" y="581" width="132.44447455741465" height="11" rx="6" fill="#4c1d95" opacity="0.3"/><rect x="779" y="601" width="129.30031375959516" height="11" rx="6" fill="#4c1d95" opacity="0.18"/></g><rect width="1200" height="750" fill="url(#g5sgyrfv)"/><text x="72" y="652" font-family="Inter, 'Segoe UI', system-ui, -apple-system, sans-serif" font-size="22" font-weight="600" letter-spacing="3" fill="#f0abfc" opacity="0.95">GRADE DE PEÇAS</text><text x="72" y="686" font-family="Inter, 'Segoe UI', system-ui, -apple-system, sans-serif" font-size="40" font-weight="700" fill="#fff">Layout de Página Web Adicional</text><text x="72" y="730" font-family="Inter, 'Segoe UI', system-ui, -apple-system, sans-serif" font-size="21" font-weight="400" fill="#fff" opacity="0.72">ALK-DES-016 · peça 3 de 3</text></svg>