<svg xmlns="http://www.w3.org/2000/svg" width="1200" height="750" viewBox="0 0 1200 750" role="img" aria-label="Integrações para Website ou Loja Virtual (por integração)"><defs><linearGradient id="ggcq8v4" x1="0" y1="0" x2="1" y2="1" gradientTransform="rotate(41 0.5 0.5)"><stop offset="0%" stop-color="#1e3a8a"/><stop offset="100%" stop-color="#4338ca"/></linearGradient><linearGradient id="ggcq8v4v" x1="0" y1="0" x2="0" y2="1"><stop offset="55%" stop-color="#000" stop-opacity="0"/><stop offset="100%" stop-color="#000" stop-opacity="0.55"/></linearGradient></defs><rect width="1200" height="750" fill="url(#ggcq8v4)"/><circle cx="1086.1834487691522" cy="110.8545982139185" r="219.10187089350075" fill="#fff" opacity="0.07"/><circle cx="86.87331862282008" cy="672.3341245390475" r="204.6154587995261" fill="#000" opacity="0.08"/><g opacity="0.98"><rect x="196" y="196" width="820" height="410" rx="14" fill="#eff6ff" opacity="0.35"/><rect x="174" y="174" width="820" height="410" rx="14" fill="#eff6ff" opacity="0.6"/><rect x="150" y="150" width="820" height="410" rx="14" fill="#eff6ff" opacity="0.97"/><rect x="192" y="196" width="243.71605724096298" height="22" rx="11" fill="#1e3a8a" opacity="0.5"/><rect x="192" y="238" width="387.1599326096475" height="12" rx="6" fill="#1e3a8a" opacity="0.2"/><rect x="192" y="300" width="360" height="216" rx="12" fill="#1e3a8a" opacity="0.12"/><circle cx="372" cy="408" r="72" fill="none" stroke="#4338ca" stroke-width="26" opacity="0.65"/><circle cx="372" cy="408" r="72" fill="none" stroke="#93c5fd" stroke-width="26" stroke-dasharray="282.5169874308631 452" opacity="0.95"/><rect x="590" y="306" width="24" height="24" rx="7" fill="#4338ca" opacity="0.6"/><rect x="630" y="313" width="236.93004337372258" height="11" rx="6" fill="#1e3a8a" opacity="0.25"/><rect x="590" y="360" width="24" height="24" rx="7" fill="#4338ca" opacity="0.6"/><rect x="630" y="367" width="204.88326929043978" height="11" rx="6" fill="#1e3a8a" opacity="0.25"/><rect x="590" y="414" width="24" height="24" rx="7" fill="#4338ca" opacity="0.6"/><rect x="630" y="421" width="242.5475792097859" height="11" rx="6" fill="#1e3a8a" opacity="0.25"/><rect x="590" y="468" width="24" height="24" rx="7" fill="#4338ca" opacity="0.6"/><rect x="630" y="475" width="258.8890339806676" height="11" rx="6" fill="#1e3a8a" opacity="0.25"/></g><rect width="1200" height="750" fill="url(#ggcq8v4v)"/><text x="72" y="612" font-family="Inter, 'Segoe UI', system-ui, -apple-system, sans-serif" font-size="22" font-weight="600" letter-spacing="3" fill="#93c5fd" opacity="0.95">APRESENTAÇÃO ENTREGUE</text><text x="72" y="646" font-family="Inter, 'Segoe UI', system-ui, -apple-system, sans-serif" font-size="40" font-weight="700" fill="#fff">Integrações para Website ou Loja</text><text x="72" y="692" font-family="Inter, 'Segoe UI', system-ui, -apple-system, sans-serif" font-size="40" font-weight="700" fill="#fff">Virtual (por integração)</text><text x="72" y="736" font-family="Inter, 'Segoe UI', system-ui, -apple-system, sans-serif" font-size="21" font-weight="400" fill="#fff" opacity="0.72">ALK-WEB-010 · peça 2 de 3</text></svg>