<svg xmlns="http://www.w3.org/2000/svg" width="1200" height="750" viewBox="0 0 1200 750" role="img" aria-label="Papelaria (3 unidades)"><defs><linearGradient id="g2oa9v0" x1="0" y1="0" x2="1" y2="1" gradientTransform="rotate(50 0.5 0.5)"><stop offset="0%" stop-color="#4c1d95"/><stop offset="100%" stop-color="#a21caf"/></linearGradient><linearGradient id="g2oa9v0v" x1="0" y1="0" x2="0" y2="1"><stop offset="55%" stop-color="#000" stop-opacity="0"/><stop offset="100%" stop-color="#000" stop-opacity="0.55"/></linearGradient></defs><rect width="1200" height="750" fill="url(#g2oa9v0)"/><circle cx="1110.8453529886901" cy="84.47534958831966" r="185.01984243281186" fill="#fff" opacity="0.07"/><circle cx="70.3363597439602" cy="692.223319914192" r="226.16557508241385" fill="#000" opacity="0.08"/><g opacity="0.98"><rect x="205" y="175" width="230" height="210" rx="14" fill="#faf5ff" opacity="0.95"/><circle cx="320" cy="263" r="56.21260151360184" fill="#a21caf" opacity="0.55"/><rect x="239" y="331" width="156.62808746099472" height="11" rx="6" fill="#4c1d95" opacity="0.3"/><rect x="239" y="351" width="104.59336481522769" height="11" rx="6" fill="#4c1d95" opacity="0.18"/><rect x="475" y="175" width="230" height="210" rx="14" fill="#faf5ff" opacity="0.95"/><path d="M 509 311 L 579 223 L 671 311 Z" fill="#a21caf" opacity="0.5"/><circle cx="543" cy="237" r="16" fill="#f0abfc" opacity="0.8"/><rect x="509" y="331" width="146.32745108101517" height="11" rx="6" fill="#4c1d95" opacity="0.3"/><rect x="509" y="351" width="86.61390797700733" height="11" rx="6" fill="#4c1d95" opacity="0.18"/><rect x="745" y="175" width="230" height="210" rx="14" fill="#faf5ff" opacity="0.95"/><rect x="779" y="215" width="162" height="96" rx="10" fill="#4c1d95" opacity="0.45"/><rect x="779" y="331" width="153.7330521736294" height="11" rx="6" fill="#4c1d95" opacity="0.3"/><rect x="779" y="351" width="106.34195280726999" height="11" rx="6" fill="#4c1d95" opacity="0.18"/><rect x="205" y="425" width="230" height="210" rx="14" fill="#faf5ff" opacity="0.95"/><circle cx="320" cy="513" r="52.20919367624447" fill="#a21caf" opacity="0.55"/><rect x="239" y="581" width="126.2223223503679" height="11" rx="6" fill="#4c1d95" opacity="0.3"/><rect x="239" y="601" width="128.7363792862743" height="11" rx="6" fill="#4c1d95" opacity="0.18"/><rect x="475" y="425" width="230" height="210" rx="14" fill="#faf5ff" opacity="0.95"/><circle cx="590" cy="513" r="56.649926292244345" fill="#a21caf" opacity="0.55"/><rect x="509" y="581" width="112.98425521235913" height="11" rx="6" fill="#4c1d95" opacity="0.3"/><rect x="509" y="601" width="106.89367684535682" height="11" rx="6" fill="#4c1d95" opacity="0.18"/><rect x="745" y="425" width="230" height="210" rx="14" fill="#faf5ff" opacity="0.95"/><circle cx="860" cy="513" r="53.75666216574609" fill="#a21caf" opacity="0.55"/><rect x="779" y="581" width="119.59579303395003" height="11" rx="6" fill="#4c1d95" opacity="0.3"/><rect x="779" y="601" width="115.75333100743592" height="11" rx="6" fill="#4c1d95" opacity="0.18"/></g><rect width="1200" height="750" fill="url(#g2oa9v0v)"/><text x="72" y="652" font-family="Inter, 'Segoe UI', system-ui, -apple-system, sans-serif" font-size="22" font-weight="600" letter-spacing="3" fill="#f0abfc" opacity="0.95">GRADE DE PEÇAS</text><text x="72" y="686" font-family="Inter, 'Segoe UI', system-ui, -apple-system, sans-serif" font-size="40" font-weight="700" fill="#fff">Papelaria (3 unidades)</text><text x="72" y="730" font-family="Inter, 'Segoe UI', system-ui, -apple-system, sans-serif" font-size="21" font-weight="400" fill="#fff" opacity="0.72">ALK-DES-019 · peça 3 de 3</text></svg>