<svg xmlns="http://www.w3.org/2000/svg" viewBox="0 0 800 450" width="800" height="450">
  <defs>
    <linearGradient id="bg" x1="0%" y1="0%" x2="100%" y2="100%">
      <stop offset="0%" stop-color="#0a0820"/>
      <stop offset="100%" stop-color="#1e0e50"/>
    </linearGradient>
    <linearGradient id="pink" x1="0%" y1="0%" x2="100%" y2="100%">
      <stop offset="0%" stop-color="#c81a7f"/><stop offset="100%" stop-color="#7b1850"/>
    </linearGradient>
    <linearGradient id="blue" x1="0%" y1="0%" x2="100%" y2="100%">
      <stop offset="0%" stop-color="#2558FF"/><stop offset="100%" stop-color="#1a3bbf"/>
    </linearGradient>
    <linearGradient id="purple" x1="0%" y1="0%" x2="100%" y2="100%">
      <stop offset="0%" stop-color="#6E2C96"/><stop offset="100%" stop-color="#4a1d6b"/>
    </linearGradient>
    <filter id="sh"><feDropShadow dx="0" dy="5" stdDeviation="10" flood-color="rgba(0,0,0,0.6)"/></filter>
  </defs>
  <rect width="800" height="450" fill="url(#bg)"/>
  <g opacity="0.04" stroke="#fff" stroke-width="1">
    <line x1="0" y1="225" x2="800" y2="225"/>
    <line x1="200" y1="0" x2="200" y2="450"/>
    <line x1="400" y1="0" x2="400" y2="450"/>
    <line x1="600" y1="0" x2="600" y2="450"/>
  </g>
  <circle cx="650" cy="80" r="120" fill="none" stroke="rgba(200,26,127,0.07)" stroke-width="2"/>

  <text x="400" y="35" font-family="system-ui,sans-serif" font-size="18" fill="#ffffff" font-weight="700" text-anchor="middle">Layouts Editaveis</text>
  <text x="400" y="55" font-family="system-ui,sans-serif" font-size="12" fill="rgba(255,255,255,0.38)" text-anchor="middle">Arraste, edite e publique com sua identidade visual</text>

  <!-- LEFT: Simulated editor panel -->
  <rect x="28" y="68" width="210" height="350" rx="12" fill="rgba(255,255,255,0.04)" stroke="rgba(255,255,255,0.08)" stroke-width="1" filter="url(#sh)"/>
  <!-- Title bar -->
  <rect x="28" y="68" width="210" height="32" rx="12" fill="rgba(255,255,255,0.07)"/>
  <rect x="28" y="84" width="210" height="16" fill="rgba(255,255,255,0.07)"/>
  <circle cx="44" cy="84" r="5" fill="rgba(255,90,90,0.5)"/>
  <circle cx="58" cy="84" r="5" fill="rgba(255,200,50,0.4)"/>
  <circle cx="72" cy="84" r="5" fill="rgba(74,222,128,0.4)"/>
  <text x="133" y="88" font-family="system-ui,sans-serif" font-size="9" fill="rgba(255,255,255,0.4)" text-anchor="middle">Canva — Meu Template</text>
  <!-- Panels inside editor -->
  <text x="40" y="116" font-family="system-ui,sans-serif" font-size="9" fill="rgba(255,255,255,0.3)" letter-spacing="1">ELEMENTOS</text>
  <rect x="38" y="122" width="88" height="24" rx="6" fill="rgba(200,26,127,0.2)" stroke="rgba(200,26,127,0.3)" stroke-width="1"/>
  <text x="82" y="138" font-family="system-ui,sans-serif" font-size="9" fill="rgba(255,255,255,0.7)" text-anchor="middle">Texto</text>
  <rect x="134" y="122" width="88" height="24" rx="6" fill="rgba(37,88,255,0.2)" stroke="rgba(37,88,255,0.3)" stroke-width="1"/>
  <text x="178" y="138" font-family="system-ui,sans-serif" font-size="9" fill="rgba(255,255,255,0.7)" text-anchor="middle">Imagem</text>
  <rect x="38" y="152" width="88" height="24" rx="6" fill="rgba(110,44,150,0.2)" stroke="rgba(110,44,150,0.3)" stroke-width="1"/>
  <text x="82" y="168" font-family="system-ui,sans-serif" font-size="9" fill="rgba(255,255,255,0.7)" text-anchor="middle">Cor</text>
  <rect x="134" y="152" width="88" height="24" rx="6" fill="rgba(14,159,140,0.2)" stroke="rgba(14,159,140,0.3)" stroke-width="1"/>
  <text x="178" y="168" font-family="system-ui,sans-serif" font-size="9" fill="rgba(255,255,255,0.7)" text-anchor="middle">Forma</text>
  <rect x="38" y="186" width="88" height="24" rx="6" fill="rgba(249,115,22,0.18)" stroke="rgba(249,115,22,0.3)" stroke-width="1"/>
  <text x="82" y="202" font-family="system-ui,sans-serif" font-size="9" fill="rgba(255,255,255,0.7)" text-anchor="middle">Logo</text>
  <rect x="134" y="186" width="88" height="24" rx="6" fill="rgba(255,255,255,0.07)"/>
  <text x="178" y="202" font-family="system-ui,sans-serif" font-size="9" fill="rgba(255,255,255,0.4)" text-anchor="middle">Fundo</text>
  <!-- Color palette strip -->
  <text x="40" y="228" font-family="system-ui,sans-serif" font-size="9" fill="rgba(255,255,255,0.3)" letter-spacing="1">PALETA DA MARCA</text>
  <circle cx="48" cy="244" r="10" fill="#c81a7f"/>
  <circle cx="72" cy="244" r="10" fill="#2558FF"/>
  <circle cx="96" cy="244" r="10" fill="#6E2C96"/>
  <circle cx="120" cy="244" r="10" fill="#f97316"/>
  <circle cx="144" cy="244" r="10" fill="#0e9f8c"/>
  <circle cx="168" cy="244" r="10" fill="#ffffff" stroke="rgba(255,255,255,0.2)" stroke-width="1"/>
  <circle cx="192" cy="244" r="10" fill="#1a1a2e" stroke="rgba(255,255,255,0.1)" stroke-width="1"/>
  <!-- Fonts panel -->
  <text x="40" y="270" font-family="system-ui,sans-serif" font-size="9" fill="rgba(255,255,255,0.3)" letter-spacing="1">FONTES</text>
  <rect x="38" y="276" width="184" height="18" rx="4" fill="rgba(255,255,255,0.05)"/>
  <text x="46" y="289" font-family="system-ui,sans-serif" font-size="11" fill="rgba(255,255,255,0.7)" font-weight="700">Titulo Principal</text>
  <rect x="38" y="300" width="184" height="14" rx="4" fill="rgba(255,255,255,0.04)"/>
  <text x="46" y="311" font-family="system-ui,sans-serif" font-size="9" fill="rgba(255,255,255,0.5)">Subtitulo / Corpo do texto</text>
  <!-- Size selector -->
  <text x="40" y="335" font-family="system-ui,sans-serif" font-size="9" fill="rgba(255,255,255,0.3)" letter-spacing="1">TAMANHO</text>
  <rect x="38" y="340" width="55" height="20" rx="4" fill="rgba(200,26,127,0.25)" stroke="rgba(200,26,127,0.4)" stroke-width="1"/>
  <text x="65" y="354" font-family="system-ui,sans-serif" font-size="8" fill="#fff" text-anchor="middle">Feed 1:1</text>
  <rect x="99" y="340" width="55" height="20" rx="4" fill="rgba(255,255,255,0.06)"/>
  <text x="126" y="354" font-family="system-ui,sans-serif" font-size="8" fill="rgba(255,255,255,0.4)" text-anchor="middle">Stories</text>
  <rect x="160" y="340" width="55" height="20" rx="4" fill="rgba(255,255,255,0.06)"/>
  <text x="187" y="354" font-family="system-ui,sans-serif" font-size="8" fill="rgba(255,255,255,0.4)" text-anchor="middle">Banner</text>
  <!-- Export button -->
  <rect x="38" y="372" width="184" height="28" rx="14" fill="url(#pink)"/>
  <text x="130" y="390" font-family="system-ui,sans-serif" font-size="11" fill="#fff" text-anchor="middle" font-weight="700">Baixar / Exportar</text>

  <!-- RIGHT: Template preview grid -->
  <rect x="258" y="68" width="514" height="350" rx="12" fill="rgba(255,255,255,0.025)" stroke="rgba(255,255,255,0.07)" stroke-width="1" filter="url(#sh)"/>
  <text x="515" y="92" font-family="system-ui,sans-serif" font-size="10" fill="rgba(255,255,255,0.25)" text-anchor="middle" letter-spacing="1">BIBLIOTECA DE TEMPLATES</text>
  <!-- Grid of 6 template thumbnails -->
  <!-- Row 1 -->
  <rect x="272" y="100" width="152" height="90" rx="8" fill="url(#pink)"/>
  <rect x="272" y="100" width="152" height="90" rx="8" fill="rgba(0,0,0,0.3)"/>
  <text x="348" y="140" font-family="system-ui,sans-serif" font-size="10" fill="rgba(255,255,255,0.6)" text-anchor="middle">Layout 01</text>
  <text x="348" y="154" font-family="system-ui,sans-serif" font-size="8" fill="rgba(255,255,255,0.35)" text-anchor="middle">Feed minimalista</text>
  <rect x="272" y="194" width="40" height="4" rx="2" fill="rgba(255,255,255,0.2)"/>
  <rect x="272" y="194" width="40" height="4" rx="2" fill="rgba(255,255,255,0.2)"/>

  <rect x="440" y="100" width="152" height="90" rx="8" fill="url(#blue)"/>
  <rect x="440" y="100" width="152" height="90" rx="8" fill="rgba(0,0,0,0.3)"/>
  <text x="516" y="140" font-family="system-ui,sans-serif" font-size="10" fill="rgba(255,255,255,0.6)" text-anchor="middle">Layout 02</text>
  <text x="516" y="154" font-family="system-ui,sans-serif" font-size="8" fill="rgba(255,255,255,0.35)" text-anchor="middle">Stories bold</text>

  <rect x="608" y="100" width="152" height="90" rx="8" fill="url(#purple)"/>
  <rect x="608" y="100" width="152" height="90" rx="8" fill="rgba(0,0,0,0.3)"/>
  <text x="684" y="140" font-family="system-ui,sans-serif" font-size="10" fill="rgba(255,255,255,0.6)" text-anchor="middle">Layout 03</text>
  <text x="684" y="154" font-family="system-ui,sans-serif" font-size="8" fill="rgba(255,255,255,0.35)" text-anchor="middle">Carrossel edu</text>

  <!-- Row 2 -->
  <rect x="272" y="220" width="152" height="90" rx="8" fill="rgba(249,115,22,0.35)"/>
  <rect x="272" y="220" width="152" height="90" rx="8" fill="rgba(0,0,0,0.3)"/>
  <text x="348" y="260" font-family="system-ui,sans-serif" font-size="10" fill="rgba(255,255,255,0.6)" text-anchor="middle">Layout 04</text>
  <text x="348" y="274" font-family="system-ui,sans-serif" font-size="8" fill="rgba(255,255,255,0.35)" text-anchor="middle">Promo destaque</text>

  <rect x="440" y="220" width="152" height="90" rx="8" fill="rgba(14,159,140,0.35)"/>
  <rect x="440" y="220" width="152" height="90" rx="8" fill="rgba(0,0,0,0.3)"/>
  <text x="516" y="260" font-family="system-ui,sans-serif" font-size="10" fill="rgba(255,255,255,0.6)" text-anchor="middle">Layout 05</text>
  <text x="516" y="274" font-family="system-ui,sans-serif" font-size="8" fill="rgba(255,255,255,0.35)" text-anchor="middle">Institucional clean</text>

  <rect x="608" y="220" width="152" height="90" rx="8" fill="rgba(255,255,255,0.06)" stroke="rgba(255,255,255,0.12)" stroke-width="1" stroke-dasharray="4,4"/>
  <text x="684" y="258" font-family="system-ui,sans-serif" font-size="20" fill="rgba(255,255,255,0.15)" text-anchor="middle">+</text>
  <text x="684" y="274" font-family="system-ui,sans-serif" font-size="9" fill="rgba(255,255,255,0.2)" text-anchor="middle">Personalizado</text>

  <!-- Bottom info bar -->
  <rect x="272" y="328" width="488" height="72" rx="8" fill="rgba(255,255,255,0.04)"/>
  <text x="296" y="350" font-family="system-ui,sans-serif" font-size="12" fill="#fff" font-weight="700">5 unidades incluidas</text>
  <text x="296" y="368" font-family="system-ui,sans-serif" font-size="10" fill="rgba(255,255,255,0.45)">Cada template 100% editavel com sua paleta e logo</text>
  <text x="296" y="384" font-family="system-ui,sans-serif" font-size="10" fill="rgba(255,255,255,0.35)">Entrega em ate 5 dias uteis · Revisao incluida</text>
  <rect x="636" y="338" width="110" height="52" rx="10" fill="url(#pink)"/>
  <text x="691" y="360" font-family="system-ui,sans-serif" font-size="10" fill="#fff" text-anchor="middle" font-weight="700">Contratar</text>
  <text x="691" y="376" font-family="system-ui,sans-serif" font-size="9" fill="rgba(255,255,255,0.75)" text-anchor="middle">pacote agora</text>

  <text x="400" y="432" font-family="system-ui,sans-serif" font-size="10" fill="rgba(255,255,255,0.15)" text-anchor="middle">allka · layouts editaveis para redes sociais</text>
</svg>