<svg xmlns="http://www.w3.org/2000/svg" viewBox="0 0 800 450" width="800" height="450">
  <defs>
    <linearGradient id="bg" x1="0%" y1="0%" x2="100%" y2="100%">
      <stop offset="0%" stop-color="#0a0820"/>
      <stop offset="100%" stop-color="#1e0e50"/>
    </linearGradient>
    <linearGradient id="pink" x1="0%" y1="0%" x2="100%" y2="100%">
      <stop offset="0%" stop-color="#c81a7f"/><stop offset="100%" stop-color="#7b1850"/>
    </linearGradient>
    <linearGradient id="blue" x1="0%" y1="0%" x2="100%" y2="100%">
      <stop offset="0%" stop-color="#2558FF"/><stop offset="100%" stop-color="#1a3bbf"/>
    </linearGradient>
    <linearGradient id="linkedin" x1="0%" y1="0%" x2="100%" y2="100%">
      <stop offset="0%" stop-color="#0a66c2"/><stop offset="100%" stop-color="#004080"/>
    </linearGradient>
    <filter id="sh"><feDropShadow dx="0" dy="8" stdDeviation="14" flood-color="rgba(0,0,0,0.7)"/></filter>
  </defs>
  <rect width="800" height="450" fill="url(#bg)"/>
  <g opacity="0.04" stroke="#fff" stroke-width="1">
    <line x1="0" y1="225" x2="800" y2="225"/>
    <line x1="200" y1="0" x2="200" y2="450"/>
    <line x1="400" y1="0" x2="400" y2="450"/>
    <line x1="600" y1="0" x2="600" y2="450"/>
  </g>
  <circle cx="130" cy="225" r="180" fill="none" stroke="rgba(200,26,127,0.07)" stroke-width="90" opacity="0.3"/>
  <circle cx="400" cy="225" r="180" fill="none" stroke="rgba(37,88,255,0.06)" stroke-width="90" opacity="0.3"/>
  <circle cx="670" cy="225" r="180" fill="none" stroke="rgba(10,102,194,0.07)" stroke-width="90" opacity="0.3"/>

  <text x="400" y="35" font-family="system-ui,sans-serif" font-size="18" fill="#ffffff" font-weight="700" text-anchor="middle">Templates por Plataforma</text>
  <text x="400" y="55" font-family="system-ui,sans-serif" font-size="12" fill="rgba(255,255,255,0.38)" text-anchor="middle">Formato ideal para cada rede social</text>

  <!-- Phone 1: Instagram Feed -->
  <g filter="url(#sh)">
    <rect x="52" y="72" width="145" height="295" rx="22" fill="#0d0d20" stroke="rgba(255,255,255,0.14)" stroke-width="2"/>
    <rect x="96" y="72" width="57" height="8" rx="4" fill="#1a1a2e"/>
    <rect x="62" y="94" width="125" height="265" rx="14" fill="#121220"/>
    <rect x="62" y="94" width="125" height="32" rx="14" fill="#1e1e35"/>
    <rect x="62" y="112" width="125" height="14" fill="#1e1e35"/>
    <circle cx="77" cy="110" r="8" fill="url(#pink)"/>
    <text x="93" y="114" font-family="system-ui,sans-serif" font-size="9" fill="rgba(255,255,255,0.85)" font-weight="700">@suamarca</text>
    <rect x="62" y="128" width="125" height="125" fill="url(#pink)"/>
    <rect x="62" y="128" width="125" height="125" fill="rgba(0,0,0,0.2)"/>
    <text x="124" y="184" font-family="system-ui,sans-serif" font-size="11" fill="rgba(255,255,255,0.55)" text-anchor="middle">Feed</text>
    <text x="124" y="198" font-family="system-ui,sans-serif" font-size="11" fill="rgba(255,255,255,0.55)" text-anchor="middle">1080x1080</text>
    <rect x="72" y="262" width="48" height="5" rx="2" fill="rgba(255,255,255,0.09)"/>
    <rect x="72" y="272" width="62" height="3" rx="1" fill="rgba(255,255,255,0.06)"/>
    <rect x="72" y="282" width="55" height="3" rx="1" fill="rgba(255,255,255,0.06)"/>
    <rect x="72" y="306" width="32" height="6" rx="3" fill="rgba(255,255,255,0.06)"/>
    <rect x="112" y="306" width="20" height="6" rx="3" fill="rgba(255,255,255,0.06)"/>
    <rect x="140" y="306" width="20" height="6" rx="3" fill="rgba(255,255,255,0.06)"/>
    <rect x="80" y="340" width="88" height="7" rx="3" fill="rgba(255,255,255,0.05)"/>
  </g>
  <rect x="52" y="375" width="145" height="26" rx="8" fill="rgba(200,26,127,0.18)" stroke="rgba(200,26,127,0.3)" stroke-width="1"/>
  <text x="124" y="391" font-family="system-ui,sans-serif" font-size="11" fill="#fff" text-anchor="middle" font-weight="700">Instagram Feed</text>
  <text x="124" y="406" font-family="system-ui,sans-serif" font-size="10" fill="rgba(255,255,255,0.4)" text-anchor="middle">1080 x 1080 px</text>

  <!-- Phone 2: Stories (taller, center) -->
  <g filter="url(#sh)">
    <rect x="274" y="55" width="155" height="310" rx="22" fill="#0d0d20" stroke="rgba(255,255,255,0.14)" stroke-width="2"/>
    <rect x="320" y="55" width="63" height="8" rx="4" fill="#1a1a2e"/>
    <rect x="284" y="76" width="135" height="281" rx="14" fill="#121220"/>
    <rect x="284" y="76" width="135" height="32" rx="14" fill="#1e1e35"/>
    <rect x="284" y="93" width="135" height="15" fill="#1e1e35"/>
    <circle cx="300" cy="93" r="8" fill="rgba(255,255,255,0.1)"/>
    <rect x="289" y="90" width="130" height="2" rx="1" fill="rgba(200,26,127,0.5)"/>
    <rect x="289" y="90" width="55" height="2" rx="1" fill="rgba(200,26,127,0.9)"/>
    <text x="356" y="99" font-family="system-ui,sans-serif" font-size="9" fill="rgba(255,255,255,0.7)" text-anchor="middle" font-weight="600">@suamarca</text>
    <rect x="284" y="110" width="135" height="220" fill="url(#blue)"/>
    <rect x="284" y="110" width="135" height="220" fill="rgba(0,0,0,0.28)"/>
    <text x="356" y="200" font-family="system-ui,sans-serif" font-size="13" fill="rgba(255,255,255,0.6)" text-anchor="middle">Stories</text>
    <text x="356" y="216" font-family="system-ui,sans-serif" font-size="10" fill="rgba(255,255,255,0.4)" text-anchor="middle">1080x1920</text>
    <rect x="294" y="340" width="115" height="8" rx="4" fill="rgba(255,255,255,0.07)"/>
  </g>
  <rect x="274" y="374" width="155" height="26" rx="8" fill="rgba(37,88,255,0.2)" stroke="rgba(37,88,255,0.35)" stroke-width="1"/>
  <text x="351" y="390" font-family="system-ui,sans-serif" font-size="11" fill="#fff" text-anchor="middle" font-weight="700">Instagram Stories</text>
  <text x="351" y="406" font-family="system-ui,sans-serif" font-size="10" fill="rgba(255,255,255,0.4)" text-anchor="middle">1080 x 1920 px</text>

  <!-- Phone 3: LinkedIn -->
  <g filter="url(#sh)">
    <rect x="508" y="72" width="235" height="148" rx="12" fill="#0d0d20" stroke="rgba(255,255,255,0.12)" stroke-width="2"/>
    <rect x="518" y="84" width="215" height="128" rx="8" fill="#141428"/>
    <rect x="518" y="84" width="215" height="32" rx="8" fill="#1c1c32"/>
    <rect x="518" y="100" width="215" height="16" fill="#1c1c32"/>
    <circle cx="534" cy="100" r="10" fill="url(#linkedin)"/>
    <text x="553" y="104" font-family="system-ui,sans-serif" font-size="9" fill="rgba(255,255,255,0.85)" font-weight="700">Empresa · LinkedIn</text>
    <rect x="518" y="118" width="215" height="90" fill="url(#linkedin)"/>
    <rect x="518" y="118" width="215" height="90" fill="rgba(0,0,0,0.3)"/>
    <text x="625" y="158" font-family="system-ui,sans-serif" font-size="10" fill="rgba(255,255,255,0.55)" text-anchor="middle">Post Profissional</text>
    <text x="625" y="172" font-family="system-ui,sans-serif" font-size="9" fill="rgba(255,255,255,0.35)" text-anchor="middle">1200 x 627 px</text>
    <rect x="528" y="214" width="60" height="4" rx="2" fill="rgba(255,255,255,0.07)"/>
    <rect x="528" y="223" width="80" height="3" rx="1" fill="rgba(255,255,255,0.05)"/>
  </g>
  <rect x="508" y="232" width="235" height="65" rx="8" fill="rgba(10,102,194,0.15)" stroke="rgba(10,102,194,0.3)" stroke-width="1"/>
  <text x="625" y="257" font-family="system-ui,sans-serif" font-size="13" fill="#fff" text-anchor="middle" font-weight="700">LinkedIn Post</text>
  <text x="625" y="274" font-family="system-ui,sans-serif" font-size="11" fill="rgba(255,255,255,0.5)" text-anchor="middle">Formato apaisado — ideal para posts</text>
  <text x="625" y="289" font-family="system-ui,sans-serif" font-size="10" fill="rgba(255,255,255,0.3)" text-anchor="middle">1200 x 627 px</text>

  <!-- Tool badges bottom right -->
  <rect x="508" y="316" width="235" height="60" rx="10" fill="rgba(255,255,255,0.04)" stroke="rgba(255,255,255,0.07)" stroke-width="1"/>
  <text x="625" y="338" font-family="system-ui,sans-serif" font-size="10" fill="rgba(255,255,255,0.35)" text-anchor="middle" letter-spacing="1">FERRAMENTAS INCLUIDAS</text>
  <text x="530" y="362" font-family="system-ui,sans-serif" font-size="11" fill="rgba(255,255,255,0.6)" font-weight="600">Canva</text>
  <text x="572" y="362" font-family="system-ui,sans-serif" font-size="11" fill="rgba(255,255,255,0.25)">·</text>
  <text x="580" y="362" font-family="system-ui,sans-serif" font-size="11" fill="rgba(255,255,255,0.6)" font-weight="600">Photoshop</text>
  <text x="644" y="362" font-family="system-ui,sans-serif" font-size="11" fill="rgba(255,255,255,0.25)">·</text>
  <text x="652" y="362" font-family="system-ui,sans-serif" font-size="11" fill="rgba(255,255,255,0.6)" font-weight="600">Illustrator</text>
  <text x="710" y="362" font-family="system-ui,sans-serif" font-size="11" fill="rgba(255,255,255,0.25)">·</text>
  <text x="718" y="362" font-family="system-ui,sans-serif" font-size="11" fill="rgba(255,255,255,0.6)" font-weight="600">AI</text>

  <text x="400" y="432" font-family="system-ui,sans-serif" font-size="10" fill="rgba(255,255,255,0.15)" text-anchor="middle">allka · templates para redes sociais</text>
</svg>