<svg xmlns="http://www.w3.org/2000/svg" viewBox="0 0 800 450" width="800" height="450">
  <defs>
    <linearGradient id="bg" x1="0%" y1="0%" x2="100%" y2="100%">
      <stop offset="0%" stop-color="#0a0820"/>
      <stop offset="100%" stop-color="#1e0e50"/>
    </linearGradient>
    <linearGradient id="s1" x1="0%" y1="0%" x2="100%" y2="100%">
      <stop offset="0%" stop-color="#c81a7f"/><stop offset="100%" stop-color="#7b1850"/>
    </linearGradient>
    <linearGradient id="s2" x1="0%" y1="0%" x2="100%" y2="100%">
      <stop offset="0%" stop-color="#2558FF"/><stop offset="100%" stop-color="#1a3bbf"/>
    </linearGradient>
    <linearGradient id="s3" x1="0%" y1="0%" x2="100%" y2="100%">
      <stop offset="0%" stop-color="#6E2C96"/><stop offset="100%" stop-color="#4a1d6b"/>
    </linearGradient>
    <linearGradient id="s4" x1="0%" y1="0%" x2="100%" y2="100%">
      <stop offset="0%" stop-color="#0e9f8c"/><stop offset="100%" stop-color="#0a6f62"/>
    </linearGradient>
    <filter id="sh"><feDropShadow dx="0" dy="6" stdDeviation="12" flood-color="rgba(0,0,0,0.6)"/></filter>
  </defs>
  <rect width="800" height="450" fill="url(#bg)"/>
  <g opacity="0.04" stroke="#fff" stroke-width="1">
    <line x1="0" y1="225" x2="800" y2="225"/>
    <line x1="200" y1="0" x2="200" y2="450"/>
    <line x1="400" y1="0" x2="400" y2="450"/>
    <line x1="600" y1="0" x2="600" y2="450"/>
  </g>
  <circle cx="400" cy="225" r="250" fill="none" stroke="rgba(200,26,127,0.05)" stroke-width="2"/>

  <text x="400" y="38" font-family="system-ui,sans-serif" font-size="18" fill="#ffffff" font-weight="700" text-anchor="middle">Template de Carrossel</text>
  <text x="400" y="58" font-family="system-ui,sans-serif" font-size="12" fill="rgba(255,255,255,0.38)" text-anchor="middle">4 slides prontos para publicar no Instagram</text>

  <!-- Slide 01 -->
  <g filter="url(#sh)">
    <rect x="38" y="78" width="160" height="285" rx="14" fill="url(#s1)"/>
    <rect x="38" y="78" width="160" height="285" rx="14" fill="rgba(0,0,0,0.25)"/>
    <rect x="48" y="92" width="140" height="140" rx="8" fill="rgba(255,255,255,0.08)"/>
    <text x="118" y="152" font-family="system-ui,sans-serif" font-size="11" fill="rgba(255,255,255,0.35)" text-anchor="middle">Imagem</text>
    <text x="118" y="165" font-family="system-ui,sans-serif" font-size="11" fill="rgba(255,255,255,0.35)" text-anchor="middle">de Capa</text>
    <text x="53" y="252" font-family="system-ui,sans-serif" font-size="13" fill="#fff" font-weight="700">Titulo do</text>
    <text x="53" y="270" font-family="system-ui,sans-serif" font-size="13" fill="#fff" font-weight="700">Carrossel</text>
    <rect x="53" y="279" width="120" height="3" rx="1" fill="rgba(255,255,255,0.35)"/>
    <rect x="53" y="287" width="100" height="3" rx="1" fill="rgba(255,255,255,0.2)"/>
    <rect x="53" y="296" width="80" height="3" rx="1" fill="rgba(255,255,255,0.14)"/>
    <rect x="53" y="340" width="128" height="14" rx="7" fill="rgba(255,255,255,0.15)"/>
    <text x="117" y="351" font-family="system-ui,sans-serif" font-size="9" fill="#fff" text-anchor="middle">Arraste para continuar &gt;</text>
  </g>
  <rect x="38" y="373" width="160" height="20" rx="6" fill="rgba(255,255,255,0.06)"/>
  <text x="118" y="387" font-family="system-ui,sans-serif" font-size="10" fill="rgba(255,255,255,0.45)" text-anchor="middle" font-weight="700">Slide 01</text>

  <!-- Slide 02 -->
  <g filter="url(#sh)">
    <rect x="220" y="78" width="160" height="285" rx="14" fill="url(#s2)"/>
    <rect x="220" y="78" width="160" height="285" rx="14" fill="rgba(0,0,0,0.25)"/>
    <rect x="234" y="96" width="132" height="5" rx="2" fill="rgba(255,255,255,0.5)"/>
    <rect x="234" y="108" width="114" height="4" rx="2" fill="rgba(255,255,255,0.28)"/>
    <rect x="234" y="118" width="120" height="4" rx="2" fill="rgba(255,255,255,0.22)"/>
    <rect x="234" y="135" width="132" height="90" rx="8" fill="rgba(255,255,255,0.07)"/>
    <text x="300" y="175" font-family="system-ui,sans-serif" font-size="10" fill="rgba(255,255,255,0.28)" text-anchor="middle">Grafico / Dados</text>
    <rect x="234" y="238" width="132" height="4" rx="2" fill="rgba(255,255,255,0.25)"/>
    <rect x="234" y="248" width="100" height="3" rx="1" fill="rgba(255,255,255,0.15)"/>
    <rect x="234" y="258" width="112" height="3" rx="1" fill="rgba(255,255,255,0.12)"/>
    <rect x="234" y="310" width="132" height="30" rx="10" fill="rgba(37,88,255,0.4)" stroke="rgba(255,255,255,0.2)" stroke-width="1"/>
    <text x="300" y="328" font-family="system-ui,sans-serif" font-size="9" fill="#fff" text-anchor="middle" font-weight="600">Dica ou Destaque &gt;</text>
  </g>
  <rect x="220" y="373" width="160" height="20" rx="6" fill="rgba(255,255,255,0.06)"/>
  <text x="300" y="387" font-family="system-ui,sans-serif" font-size="10" fill="rgba(255,255,255,0.45)" text-anchor="middle" font-weight="700">Slide 02</text>

  <!-- Slide 03 -->
  <g filter="url(#sh)">
    <rect x="402" y="78" width="160" height="285" rx="14" fill="url(#s3)"/>
    <rect x="402" y="78" width="160" height="285" rx="14" fill="rgba(0,0,0,0.25)"/>
    <rect x="416" y="96" width="132" height="5" rx="2" fill="rgba(255,255,255,0.5)"/>
    <rect x="416" y="108" width="108" height="4" rx="2" fill="rgba(255,255,255,0.28)"/>
    <rect x="416" y="118" width="120" height="4" rx="2" fill="rgba(255,255,255,0.22)"/>
    <rect x="416" y="135" width="132" height="90" rx="8" fill="rgba(255,255,255,0.07)"/>
    <text x="482" y="175" font-family="system-ui,sans-serif" font-size="10" fill="rgba(255,255,255,0.28)" text-anchor="middle">Imagem / Foto</text>
    <rect x="416" y="238" width="132" height="4" rx="2" fill="rgba(255,255,255,0.25)"/>
    <rect x="416" y="248" width="96" height="3" rx="1" fill="rgba(255,255,255,0.15)"/>
    <rect x="416" y="258" width="114" height="3" rx="1" fill="rgba(255,255,255,0.12)"/>
    <rect x="416" y="310" width="132" height="30" rx="10" fill="rgba(110,44,150,0.5)" stroke="rgba(255,255,255,0.2)" stroke-width="1"/>
    <text x="482" y="328" font-family="system-ui,sans-serif" font-size="9" fill="#fff" text-anchor="middle" font-weight="600">Conteudo 3 de 4 &gt;</text>
  </g>
  <rect x="402" y="373" width="160" height="20" rx="6" fill="rgba(255,255,255,0.06)"/>
  <text x="482" y="387" font-family="system-ui,sans-serif" font-size="10" fill="rgba(255,255,255,0.45)" text-anchor="middle" font-weight="700">Slide 03</text>

  <!-- Slide 04: CTA -->
  <g filter="url(#sh)">
    <rect x="584" y="78" width="160" height="285" rx="14" fill="url(#s4)"/>
    <rect x="584" y="78" width="160" height="285" rx="14" fill="rgba(0,0,0,0.2)"/>
    <text x="664" y="160" font-family="system-ui,sans-serif" font-size="32" fill="rgba(255,255,255,0.15)" text-anchor="middle">&#9829;</text>
    <text x="664" y="205" font-family="system-ui,sans-serif" font-size="14" fill="#fff" font-weight="800" text-anchor="middle">Gostou?</text>
    <text x="664" y="222" font-family="system-ui,sans-serif" font-size="11" fill="rgba(255,255,255,0.7)" text-anchor="middle">Salve e compartilhe!</text>
    <rect x="604" y="240" width="120" height="2" rx="1" fill="rgba(255,255,255,0.2)"/>
    <rect x="614" y="258" width="100" height="30" rx="15" fill="rgba(255,255,255,0.2)" stroke="rgba(255,255,255,0.35)" stroke-width="1"/>
    <text x="664" y="277" font-family="system-ui,sans-serif" font-size="9" fill="#fff" text-anchor="middle" font-weight="700">Siga @suamarca</text>
    <rect x="614" y="300" width="100" height="30" rx="15" fill="rgba(14,159,140,0.6)"/>
    <text x="664" y="319" font-family="system-ui,sans-serif" font-size="9" fill="#fff" text-anchor="middle" font-weight="700">Ver no link da bio</text>
  </g>
  <rect x="584" y="373" width="160" height="20" rx="6" fill="rgba(255,255,255,0.06)"/>
  <text x="664" y="387" font-family="system-ui,sans-serif" font-size="10" fill="rgba(255,255,255,0.45)" text-anchor="middle" font-weight="700">Slide 04 — CTA</text>

  <text x="400" y="432" font-family="system-ui,sans-serif" font-size="10" fill="rgba(255,255,255,0.15)" text-anchor="middle">allka · templates de carrossel para Instagram</text>
</svg>